<svg width="128" height="128" viewBox="0 0 128 128" fill="none" xmlns="http://www.w3.org/2000/svg">
<path d="M110.533 110.533C133.822 87.2426 133.822 49.4822 110.533 26.1923C109.801 25.4607 109.055 24.7521 108.296 24.0665C129.437 47.4777 128.728 83.6118 106.17 106.17C83.6118 128.728 47.4777 129.437 24.0665 108.296C24.7521 109.055 25.4607 109.801 26.1923 110.533C49.4822 133.822 87.2426 133.822 110.533 110.533Z" fill="white"/>
<path fill-rule="evenodd" clip-rule="evenodd" d="M103.933 19.7041C103.248 18.9449 102.539 18.199 101.808 17.4674C78.5178 -5.82248 40.7574 -5.82248 17.4674 17.4674C-5.82248 40.7574 -5.82248 78.5178 17.4674 101.808C18.199 102.539 18.9449 103.248 19.7041 103.933C-1.43707 80.5223 -0.728481 44.3882 21.8299 21.8299C44.3882 -0.728481 80.5223 -1.43707 103.933 19.7041Z" fill="#712F9D"/>
</svg>
