<svg width="5000" height="3787" viewBox="0 0 5000 3787" fill="none" xmlns="http://www.w3.org/2000/svg">
<path fill-rule="evenodd" clip-rule="evenodd" d="M4465.36 3699.96C4456.7 3714.08 4441.26 3722.57 4424.69 3722.57C4386.15 3722.57 4362.97 3679.42 4383.08 3646.54C4587.85 3311.8 4705.87 2918.22 4705.87 2497.08C4705.87 2458.83 4704.9 2420.81 4702.98 2383.05C4701.53 2354.61 4723.94 2330.41 4752.41 2330.41C4778.09 2330.41 4799.46 2350.25 4800.79 2375.9C4802.87 2416.03 4803.92 2456.43 4803.92 2497.08C4803.92 2937.92 4680.11 3349.84 4465.36 3699.96ZM997.945 881.609C1017.02 863.866 1019.57 834.4 1003.33 814.027C985.801 792.028 953.365 789.201 932.75 808.343C527.52 1184.6 257.925 1704.93 205.451 2287.85C202.903 2316.15 225.433 2340.22 253.848 2340.22C279.63 2340.22 300.963 2320.25 303.3 2294.57C353.951 1738.06 611.303 1241.27 997.945 881.609ZM250.22 2608.84C222.196 2608.84 199.811 2632.29 201.767 2660.25C228.301 3039.48 346.614 3393.41 534.639 3699.96C543.302 3714.08 558.74 3722.57 575.308 3722.57C613.852 3722.57 637.031 3679.42 616.917 3646.54C438.042 3354.13 325.364 3016.82 299.727 2655.46C297.876 2629.37 276.375 2608.84 250.22 2608.84Z" fill="white"/>
<path d="M1338.24 559.823C1318.63 530.411 1346.51 502.134 1366.64 490.736C1701.28 301.295 2088.01 193.157 2500 193.157C2802.23 193.157 3090.86 251.35 3355.31 357.142C3385.13 369.073 3394.75 406.167 3375.19 431.645C3361.55 449.408 3337.68 455.699 3316.88 447.401C3064.24 346.625 2788.59 291.207 2500 291.207C2118.67 291.207 1726.64 400.3 1413.73 570.607C1384.79 586.354 1357.84 589.235 1338.24 559.823Z" fill="white"/>
<path d="M4677.61 2143.04C4681.51 2167.23 4702.22 2185.31 4726.72 2185.31C4756.51 2185.31 4779.49 2159.01 4774.78 2129.61C4661.26 1421.41 4224.98 821.032 3621.57 484.107C3598.77 471.376 3570.11 479.397 3556.72 501.82C3542.35 525.897 3551.12 557.062 3575.59 570.754C4151.79 893.173 4568.49 1466.63 4677.61 2143.04Z" fill="white"/>
<path fill-rule="evenodd" clip-rule="evenodd" d="M356.344 1355.9C319.221 1355.9 295.354 1316.67 313.39 1284.22C718.337 555.718 1476.78 50.7522 2356.95 1.10149C2384.7 -0.463644 2407.84 21.8215 2407.84 49.611C2407.84 75.9844 2386.91 97.5887 2360.58 99.0956C1516.51 147.402 789.165 631.554 400.152 1329.96C391.286 1345.88 374.562 1355.9 356.344 1355.9Z" fill="white"/>
<path fill-rule="evenodd" clip-rule="evenodd" d="M98.0383 2497.08C98.0383 2914.37 204.448 3306.8 391.614 3648.73C409.624 3681.63 386.237 3722.57 348.728 3722.57C331.265 3722.57 315.127 3713.18 306.727 3697.87C111.196 3341.48 0 2932.27 0 2497.08C0 2173.43 61.5023 1864.14 173.458 1580.26C180.692 1561.92 198.497 1550.02 218.216 1550.02C253.111 1550.02 276.683 1585.74 263.909 1618.21C156.841 1890.4 98.0383 2186.87 98.0383 2497.08Z" fill="white"/>
<path fill-rule="evenodd" clip-rule="evenodd" d="M356.344 1355.9C319.221 1355.9 295.354 1316.67 313.39 1284.22C718.337 555.718 1476.78 50.7522 2356.95 1.10149C2384.7 -0.463644 2407.84 21.8215 2407.84 49.611C2407.84 75.9844 2386.91 97.5887 2360.58 99.0956C1516.51 147.402 789.165 631.554 400.152 1329.96C391.286 1345.88 374.562 1355.9 356.344 1355.9Z" fill="white"/>
<path fill-rule="evenodd" clip-rule="evenodd" d="M356.344 1355.9C319.221 1355.9 295.354 1316.67 313.39 1284.22C718.337 555.718 1476.78 50.7522 2356.95 1.10149C2384.7 -0.463644 2407.84 21.8215 2407.84 49.611C2407.84 75.9844 2386.91 97.5887 2360.58 99.0956C1516.51 147.402 789.165 631.554 400.152 1329.96C391.286 1345.88 374.562 1355.9 356.344 1355.9Z" fill="white"/>
<path d="M2623.14 0.0574855C2595.54 -1.28138 2572.55 20.9402 2572.55 48.5761C2572.55 75.0983 2593.79 96.7695 2620.28 98.0759C3410.67 137.056 4100.59 558.085 4509.21 1180.35C4523.16 1201.59 4550.84 1209.24 4573.46 1197.68C4599.11 1184.58 4608.06 1152.29 4592.27 1128.2C4166.75 479.125 3447.33 40.0334 2623.14 0.0574855Z" fill="white"/>
<path d="M4608.39 3648.73C4795.55 3306.8 4901.96 2914.37 4901.96 2497.08C4901.96 2078.05 4794.66 1684.08 4606.04 1341.14C4592.42 1316.39 4601.8 1285.08 4627.1 1272.5C4650.28 1260.96 4678.48 1269.45 4690.98 1292.12C4887.94 1649.48 5000 2060.19 5000 2497.08C5000 2932.27 4888.8 3341.48 4693.27 3697.87C4684.87 3713.18 4668.73 3722.57 4651.27 3722.57C4613.76 3722.57 4590.38 3681.63 4608.39 3648.73Z" fill="white"/>
<path d="M872.549 3334.33C850.891 3334.33 833.333 3316.77 833.333 3295.12C833.333 3273.46 850.891 3255.9 872.549 3255.9H4127.45C4149.11 3255.9 4166.67 3273.46 4166.67 3295.12C4166.67 3316.77 4149.11 3334.33 4127.45 3334.33H872.549Z" fill="white"/>
<path fill-rule="evenodd" clip-rule="evenodd" d="M1225.49 2628.45C1198.42 2628.45 1176.47 2606.5 1176.47 2579.43V932.372C1176.47 905.299 1198.42 883.351 1225.49 883.351H3774.51C3801.58 883.351 3823.53 905.299 3823.53 932.372V2579.43C3823.53 2606.5 3801.58 2628.45 3774.51 2628.45H1225.49ZM1303.92 2550.02C1276.85 2550.02 1254.9 2528.07 1254.9 2501V1010.8C1254.9 983.73 1276.85 961.783 1303.92 961.783H3696.08C3723.15 961.783 3745.1 983.73 3745.1 1010.8V2501C3745.1 2528.07 3723.15 2550.02 3696.08 2550.02H1303.92Z" fill="white"/>
<path fill-rule="evenodd" clip-rule="evenodd" d="M1206.63 2648.06C1190.24 2648.06 1174.93 2656.25 1165.84 2669.89L839.043 3160.08C817.325 3192.66 840.678 3236.29 879.829 3236.29H4128.01C4167.17 3236.29 4190.52 3192.66 4168.8 3160.08L3842 2669.89C3832.91 2656.25 3817.61 2648.06 3801.22 2648.06H1206.63ZM3671.33 2707.99C3666.78 2701.17 3659.13 2697.08 3650.94 2697.08H1356.91C1348.71 2697.08 1341.06 2701.17 1336.51 2707.99C1325.66 2724.28 1337.33 2746.1 1356.91 2746.1H3650.94C3670.51 2746.1 3682.19 2724.28 3671.33 2707.99ZM3736.69 2806.03C3732.14 2799.21 3724.49 2795.12 3716.29 2795.12H1291.55C1283.35 2795.12 1275.7 2799.21 1271.16 2806.03C1260.3 2822.32 1271.97 2844.14 1291.55 2844.14H3716.29C3735.87 2844.14 3747.55 2822.32 3736.69 2806.03ZM2766.36 2942.17C2783.58 2942.17 2799.54 2951.21 2808.4 2965.97L2896.63 3113.03C2916.24 3145.71 2892.7 3187.27 2854.6 3187.27H2145.4C2107.3 3187.27 2083.76 3145.71 2103.37 3113.03L2191.6 2965.97C2200.46 2951.21 2216.42 2942.17 2233.64 2942.17H2766.36Z" fill="white"/>
<path fill-rule="evenodd" clip-rule="evenodd" d="M3133.47 1970.05C3008.93 2060.47 2877.83 2140.99 2751.37 2228.71C2671.51 2284.72 2589.58 2344.8 2529.91 2422.97C2512.13 2446.45 2512.95 2446.86 2538.87 2428.02C2710.55 2303.42 2925.16 2235.25 3119.88 2156.1C3133.17 2150.68 3139.82 2147.92 3153.05 2142.23C3153.94 2139.72 3154.37 2138.45 3155.23 2135.95C3167.49 2098.03 3172 2057.01 3175.33 2017.43C3176.94 1998.18 3185.35 1957.08 3171.64 1942.18C3170.04 1942.9 3152.94 1955.81 3133.47 1970.05ZM3327.22 2088.99C3104.29 2178.16 2870.85 2254.79 2659.72 2370.27C2617.82 2393.24 2559.56 2420.9 2528.99 2458.95C2527.44 2461.86 2526.89 2462.14 2564.64 2446.1C2576.41 2441.07 2597.15 2432.68 2610.56 2427.41C2623.98 2422.15 2641.53 2414.7 2649.49 2410.88C2856.53 2311.97 3075.15 2227.09 3291.88 2151.85C3300.04 2149.01 3304.12 2147.59 3312.24 2144.69C3312.71 2148.6 3312.96 2150.44 3313.43 2154.3C3316.63 2195.77 3292.1 2240.2 3272.82 2274.84C3262.41 2292.25 3262.9 2294.05 3277.1 2291.69C3311.81 2271.3 3336.16 2222.94 3356.4 2189.78C3380.32 2150.56 3424.22 2061.69 3420.12 2057.19C3415.61 2052.22 3355.87 2077.67 3327.22 2088.99ZM3004.21 2331.57C2860.77 2358.22 2716.49 2394.84 2582.46 2453.33C2562.54 2462.08 2541.64 2470.04 2522.62 2480.72C2534.99 2480.45 2549.33 2475.38 2561.99 2472.02C2834.83 2401.41 3120.84 2342.43 3403.71 2341.73C3426.75 2341.86 3449.81 2342.35 3472.81 2343.68C3503.77 2345.84 3505.81 2344.88 3483.81 2338.77C3328.88 2298.75 3160.96 2303.05 3004.21 2331.54V2331.57ZM3145.74 2378.53C2949.85 2403.84 2754.49 2435.26 2561.54 2477.67C2542.84 2481.97 2523.93 2485.12 2507.54 2495.63C2496.87 2502.34 2497.13 2502.36 2547.7 2496.69C2719.78 2477.4 2893.59 2469.42 3066.64 2465.66C3244.67 2461.75 3426.54 2461.75 3601.72 2497.41C3631.74 2503.55 3631.37 2503.81 3621.33 2481.92C3600.05 2440.15 3571.42 2396.21 3528.93 2373.05C3483.83 2353.07 3422.65 2359.35 3374.81 2360.55C3298.2 2362.68 3221.74 2368.67 3145.74 2378.51V2378.53ZM1866.53 1970.07C1990.97 2060.47 2122.07 2141.13 2248.61 2228.71C2328.51 2284.74 2410.38 2344.76 2470.19 2422.97C2487.97 2446.45 2487.15 2446.86 2461.22 2428.02C2289.55 2303.42 2074.93 2235.25 1880.22 2156.1C1866.93 2150.7 1860.28 2147.92 1847.04 2142.23L1844.85 2135.95C1832.49 2098.07 1828.08 2057.01 1824.81 2017.49C1823.3 1999.18 1815 1956.85 1828.51 1942.23C1829.96 1942.9 1847.06 1955.81 1866.53 1970.07ZM1672.78 2088.99C1895.54 2178.08 2129.66 2254.24 2340.26 2370.27C2383.18 2394.12 2438.62 2421.04 2471.01 2458.95C2472.56 2461.86 2473.11 2462.14 2435.36 2446.1C2423.6 2441.07 2402.85 2432.68 2389.42 2427.41C2375.99 2422.15 2358.48 2414.7 2350.51 2410.88C2143.47 2311.97 1924.83 2227.09 1708.1 2151.85C1699.96 2149.01 1695.88 2147.59 1687.76 2144.69C1687.27 2148.6 1687.04 2150.44 1686.57 2154.3C1683.37 2195.77 1707.9 2240.2 1727.16 2274.84C1737.59 2292.27 1737.1 2294.05 1722.88 2291.69C1688.27 2273.14 1663.14 2221.75 1643.6 2189.78C1619.88 2150.93 1575.09 2062.62 1579.88 2057.19C1584.66 2051.75 1645.62 2078.25 1672.78 2088.99ZM1995.79 2331.57C2138.94 2358.2 2284.04 2394.18 2417.54 2453.37C2437.54 2462.16 2458.3 2470.04 2477.38 2480.76C2465.05 2480.14 2450.48 2475.36 2438.01 2472.06C2165.17 2401.45 1879.16 2342.47 1596.29 2341.77C1573.25 2341.9 1550.17 2342.39 1527.17 2343.72C1496.23 2345.88 1494.19 2344.92 1516.17 2338.81C1671.35 2298.69 1838.79 2303.42 1995.79 2331.54V2331.57ZM1854.26 2378.53C2050.15 2403.84 2245.51 2435.26 2438.46 2477.67C2457.17 2481.97 2476.05 2485.12 2492.44 2495.63C2503.11 2502.34 2502.87 2502.36 2452.28 2496.69C2280.22 2477.4 2106.41 2469.42 1933.36 2465.66C1755.33 2461.75 1573.46 2461.75 1398.28 2497.41C1368.26 2503.55 1368.63 2503.81 1378.67 2481.92C1399.95 2440.15 1428.58 2396.21 1471.07 2373.05C1515.82 2353.06 1577.84 2359.35 1625.21 2360.55C1701.67 2362.56 1778.32 2368.88 1854.26 2378.51V2378.53Z" fill="white"/>
<path d="M2902.5 1129.64C2895.31 1129.16 2889.09 1134.35 2888.59 1141.23C2888.09 1148.1 2893.52 1154.06 2900.7 1154.54C2908.47 1155.05 2916.06 1155.73 2923.47 1156.59C2927.99 1168.2 2939.28 1176.43 2952.48 1176.43C2969.67 1176.43 2983.6 1162.49 2983.6 1145.3C2983.6 1128.12 2969.67 1114.18 2952.48 1114.18C2940.22 1114.18 2929.61 1121.27 2924.54 1131.58C2917.32 1130.78 2909.97 1130.13 2902.5 1129.64Z" fill="white"/>
<path d="M1973.44 1523.58C2003.48 1492.33 2039.83 1459.56 2082.67 1426.19C2083.31 1424.31 2083.97 1422.45 2084.63 1420.59C2038.9 1453.08 1999.54 1484.07 1966.04 1513.43C1967.18 1515.02 1968.33 1516.62 1969.5 1518.22C1970.8 1520.01 1972.11 1521.79 1973.44 1523.58Z" fill="white"/>
<path d="M1115.44 3463.56L924.6 3722H868.44V3358H932.4V3616.96L1123.24 3358H1179.4V3722H1115.44V3463.56Z" fill="white"/>
<path d="M1895.44 3722H1831.48V3358H1895.96L2020.24 3528.04L2138.8 3358H2199.12V3722H2135.68V3458.88L2020.76 3620.6H2011.4L1895.44 3460.44V3722Z" fill="white"/>
<path d="M2824.35 3540C2824.35 3486.96 2842.03 3442.41 2877.39 3406.36C2913.44 3370.31 2958.85 3352.28 3013.63 3352.28C3068.4 3352.28 3113.64 3369.61 3149.35 3404.28C3185.4 3439.29 3203.43 3484.53 3203.43 3540C3203.43 3594.43 3185.4 3639.32 3149.35 3674.68C3113.29 3710.04 3068.05 3727.72 3013.63 3727.72C2958.85 3727.72 2913.61 3710.39 2877.91 3675.72C2842.2 3641.05 2824.35 3595.81 2824.35 3540ZM2891.95 3540C2891.95 3576.75 2903.56 3607.25 2926.79 3631.52C2950.01 3655.79 2978.96 3667.92 3013.63 3667.92C3051.07 3667.92 3080.71 3655.79 3102.55 3631.52C3124.73 3607.25 3135.83 3576.75 3135.83 3540C3135.83 3502.91 3124.04 3472.23 3100.47 3447.96C3076.89 3424.04 3047.95 3412.08 3013.63 3412.08C2978.61 3412.08 2949.49 3424.04 2926.27 3447.96C2903.39 3471.88 2891.95 3502.56 2891.95 3540Z" fill="white"/>
<path d="M4105.8 3722H3828.64V3358H3892.6V3662.2H4052.24V3358H4116.2V3662.2H4165.6V3787H4105.8V3722Z" fill="white"/>
<path fill-rule="evenodd" clip-rule="evenodd" d="M2902.82 1690.35C2897.45 1694.95 2889.2 1694.51 2884.4 1689.37C2879.6 1684.23 2880.06 1676.34 2885.43 1671.75C2898.37 1660.67 2910.83 1649.51 2922.79 1638.31C2926.47 1634.86 2931.75 1633.92 2936.3 1635.47C2939.51 1613.99 2941.18 1592 2941.18 1569.63C2941.18 1551.25 2940.05 1533.14 2937.87 1515.36C2936.14 1501.2 2933.73 1487.24 2930.68 1473.53C2901.25 1341.02 2812.22 1230.95 2693.18 1172.88C2691.06 1172.43 2689.1 1171.49 2687.47 1170.15C2630.58 1143.4 2567.03 1128.45 2500 1128.45C2444.82 1128.45 2392.01 1138.58 2343.32 1157.08C2330.27 1162.04 2317.52 1167.6 2305.1 1173.73C2203.13 1224.02 2123.41 1312.55 2084.63 1420.59C2083.97 1422.45 2083.31 1424.31 2082.67 1426.19C2077.37 1441.6 2072.9 1457.4 2069.32 1473.53C2067.11 1483.49 2065.23 1493.58 2063.7 1503.78C2060.49 1525.26 2058.82 1547.25 2058.82 1569.63C2058.82 1588 2059.95 1606.11 2062.13 1623.89C2083.86 1645.09 2107.4 1666.14 2132.59 1686.86L2296.1 1578.44L2356.89 1683.72L2219.29 1752.18C2258.04 1778.96 2299.55 1804.74 2343.5 1829.03C2396.49 1858.3 2456.92 1886.47 2509.22 1907.64C2573.18 1933.11 2635.74 1952.45 2694.91 1965.52C2813.08 1907.23 2901.39 1797.58 2930.68 1665.72C2921.65 1673.97 2912.36 1682.19 2902.82 1690.35ZM2864.85 1705.4C2869.42 1710.73 2868.62 1718.59 2863.05 1722.97C2849.77 1733.42 2836.07 1743.77 2821.99 1753.99C2816.25 1758.15 2808.07 1757.08 2803.72 1751.59C2799.37 1746.1 2800.49 1738.27 2806.23 1734.1C2820.04 1724.08 2833.47 1713.93 2846.49 1703.69C2852.06 1699.31 2860.27 1700.08 2864.85 1705.4ZM2536.31 1902.35C2533.27 1896.1 2536.1 1888.68 2542.63 1885.77C2557.98 1878.93 2573.38 1871.75 2588.79 1864.23C2595.21 1861.1 2603.06 1863.54 2606.33 1869.68C2609.6 1875.82 2607.05 1883.34 2600.64 1886.47C2584.95 1894.12 2569.27 1901.44 2553.64 1908.4C2547.11 1911.31 2539.35 1908.6 2536.31 1902.35ZM2782.94 1766.08C2787.08 1771.73 2785.65 1779.51 2779.75 1783.47C2765.63 1792.94 2751.18 1802.28 2736.41 1811.45C2730.37 1815.2 2722.29 1813.56 2718.37 1807.78C2714.45 1802 2716.17 1794.27 2722.21 1790.52C2736.72 1781.5 2750.92 1772.33 2764.78 1763.03C2770.67 1759.07 2778.81 1760.44 2782.94 1766.08ZM2629.03 1858.12C2625.54 1852.09 2627.81 1844.49 2634.11 1841.15C2641.58 1837.19 2649.04 1833.15 2656.5 1829.03C2663.95 1824.9 2671.34 1820.74 2678.66 1816.54C2684.84 1812.99 2692.85 1814.9 2696.55 1820.81C2700.26 1826.72 2698.26 1834.39 2692.09 1837.93C2684.64 1842.21 2677.12 1846.45 2669.54 1850.64C2661.95 1854.83 2654.36 1858.95 2646.76 1862.98C2640.46 1866.32 2632.53 1864.14 2629.03 1858.12ZM2387.45 1664.12C2387.45 1664.12 2586.08 1592.46 2734.42 1590.58L2734.43 1590.58L2863.16 1335.13L2654.73 1455.47C2663.85 1483.85 2652.32 1515.73 2625.45 1531.24C2594.5 1549.11 2554.93 1538.5 2537.06 1507.56C2519.19 1476.61 2529.79 1437.03 2560.74 1419.17C2587.61 1403.65 2620.98 1409.6 2641.01 1431.69L2849.44 1311.35L2563.84 1295.12C2488.04 1422.65 2326.67 1558.84 2326.67 1558.84L2387.45 1664.12ZM2379.94 1670.72L2317.2 1562.04C2315.03 1558.29 2310.24 1557 2306.48 1559.17C2302.73 1561.33 2301.45 1566.13 2303.61 1569.88L2366.36 1678.56C2368.52 1682.31 2373.32 1683.6 2377.07 1681.43C2380.82 1679.26 2382.11 1674.47 2379.94 1670.72Z" fill="white"/>
<path d="M2403.77 1613.94L2378.28 1569.79L2487.6 1466.07C2485.77 1486.96 2490.12 1508.6 2501.4 1528.14C2512.68 1547.68 2529.25 1562.27 2548.26 1571.13L2403.77 1613.94Z" fill="white"/>
<path fill-rule="evenodd" clip-rule="evenodd" d="M2440.45 1939.89C2437.92 1933.44 2441.33 1926.24 2448.07 1923.82C2454.14 1921.64 2460.22 1919.4 2466.32 1917.11C2421.24 1897.84 2375.74 1875.66 2330.46 1850.64C2281.79 1823.75 2235.97 1795.01 2193.45 1765.04L2123.56 1799.81C2167.39 1871.33 2231.02 1929.39 2306.82 1966.37C2308.94 1966.82 2310.9 1967.76 2312.53 1969.1C2369.43 1995.85 2432.97 2010.8 2500 2010.8C2555.18 2010.8 2607.99 2000.67 2656.68 1982.17C2606.02 1969.34 2553.43 1952.25 2500 1931.01C2485.68 1936.7 2471.42 1942.09 2457.24 1947.19C2450.5 1949.61 2442.98 1946.34 2440.45 1939.89ZM2341.71 1969.74C2339.77 1963.1 2343.82 1956.22 2350.76 1954.36C2366.88 1950.05 2383.21 1945.31 2399.7 1940.12C2406.54 1937.97 2413.91 1941.53 2416.16 1948.08C2418.41 1954.63 2414.69 1961.68 2407.84 1963.83C2390.99 1969.13 2374.29 1973.99 2357.78 1978.41C2350.84 1980.26 2343.64 1976.38 2341.71 1969.74Z" fill="white"/>
<path d="M2069.32 1665.72C2073.34 1683.81 2078.47 1701.49 2084.63 1718.67L2110.45 1701.54C2096.21 1689.71 2082.49 1677.75 2069.32 1665.72Z" fill="white"/>
<path fill-rule="evenodd" clip-rule="evenodd" d="M2989.34 1569.63C2995.1 1576.22 3000.67 1582.82 3006.05 1589.4C3008.14 1587.03 3010.21 1584.66 3012.25 1582.3C3016.84 1576.98 3016.06 1569.12 3010.5 1564.73C3004.95 1560.34 2996.73 1561.08 2992.14 1566.4C2991.22 1567.47 2990.28 1568.55 2989.34 1569.63ZM2930.68 1665.72C2932.89 1655.76 2934.77 1645.67 2936.3 1635.47C2938.11 1636.08 2939.8 1637.09 2941.23 1638.49C2946.27 1643.42 2946.18 1651.32 2941.04 1656.14C2937.62 1659.34 2934.17 1662.53 2930.68 1665.72ZM2698.86 1172.86C2696.93 1173.28 2694.99 1173.26 2693.18 1172.88C2691.06 1172.43 2689.1 1171.49 2687.47 1170.15C2685.43 1168.46 2683.9 1166.16 2683.26 1163.45C2681.67 1156.72 2686.08 1150.04 2693.1 1148.52C2710.57 1144.73 2727.77 1141.47 2744.66 1138.75C2751.76 1137.6 2758.49 1142.18 2759.69 1148.98C2760.88 1155.78 2756.09 1162.22 2748.99 1163.36C2732.6 1166 2715.88 1169.17 2698.86 1172.86ZM2069.32 1473.53C2065.83 1476.72 2062.38 1479.91 2058.96 1483.11C2053.82 1487.93 2053.73 1495.83 2058.77 1500.76C2060.2 1502.16 2061.9 1503.17 2063.7 1503.78C2065.23 1493.58 2067.11 1483.49 2069.32 1473.53ZM2312.53 1969.1C2314.58 1970.79 2316.1 1973.09 2316.74 1975.81C2318.33 1982.53 2313.92 1989.21 2306.9 1990.73C2289.43 1994.52 2272.23 1997.78 2255.34 2000.5C2248.24 2001.65 2241.51 1997.07 2240.31 1990.27C2239.12 1983.47 2243.91 1977.03 2251.01 1975.89C2267.4 1973.25 2284.12 1970.08 2301.14 1966.39C2303.07 1965.97 2305 1965.99 2306.82 1966.37C2308.94 1966.82 2310.9 1967.76 2312.53 1969.1ZM1888.47 1835.87C1879.27 1833.76 1870.74 1831.05 1862.92 1827.75C1862.93 1827.94 1862.94 1828.14 1862.95 1828.33C1862.95 1828.55 1862.96 1828.76 1862.97 1828.98C1863.02 1830.13 1863.09 1831.29 1863.16 1832.44C1863.59 1839.32 1869.76 1844.56 1876.95 1844.15C1882.34 1843.85 1886.77 1840.45 1888.47 1835.87ZM1993.95 1549.85C1999.33 1556.44 2004.9 1563.03 2010.66 1569.63C2020.42 1558.44 2030.71 1547.24 2041.52 1536.06C2046.41 1531 2046.09 1523.1 2040.8 1518.42C2035.51 1513.74 2027.26 1514.05 2022.37 1519.11C2012.49 1529.33 2003.01 1539.59 1993.95 1549.85ZM1973.72 1593.98C1979.55 1598.02 1980.86 1605.82 1976.64 1611.41C1966.38 1624.98 1956.97 1638.47 1948.42 1651.82C1944.66 1657.7 1936.63 1659.55 1930.49 1655.95C1924.35 1652.35 1922.41 1644.67 1926.18 1638.79C1935.09 1624.85 1944.89 1610.83 1955.51 1596.78C1959.73 1591.19 1967.88 1589.94 1973.72 1593.98ZM2785.18 1145.63C2784.44 1138.77 2789.66 1132.64 2796.82 1131.94C2814.85 1130.16 2832.43 1129.06 2849.5 1128.64C2856.7 1128.46 2862.69 1133.9 2862.88 1140.79C2863.06 1147.68 2857.38 1153.41 2850.18 1153.59C2833.81 1153.99 2816.9 1155.05 2799.49 1156.77C2792.33 1157.47 2785.92 1152.49 2785.18 1145.63ZM1918.03 1677.48C1924.5 1680.51 1927.18 1687.98 1924.01 1694.17C1916.33 1709.22 1909.86 1724 1904.65 1738.41C1902.3 1744.93 1894.88 1748.38 1888.07 1746.13C1881.26 1743.88 1877.65 1736.78 1880 1730.26C1885.59 1714.8 1892.47 1699.08 1900.58 1683.21C1903.75 1677.02 1911.56 1674.45 1918.03 1677.48ZM2990.62 1157.19C2993.13 1150.73 3000.64 1147.44 3007.39 1149.84C3025.16 1156.16 3041.53 1163.94 3056.25 1173.23C3062.27 1177.03 3063.92 1184.77 3059.96 1190.52C3055.99 1196.28 3047.9 1197.86 3041.89 1194.07C3029.01 1185.93 3014.44 1178.98 2998.3 1173.24C2991.55 1170.84 2988.11 1163.65 2990.62 1157.19ZM3079.31 1206.83C3084.87 1202.45 3093.09 1203.21 3097.67 1208.53C3103.61 1215.43 3108.95 1222.78 3113.65 1230.57C3118.35 1238.37 3122.33 1246.47 3125.61 1254.84C3128.13 1261.29 3124.71 1268.48 3117.96 1270.9C3111.22 1273.32 3103.7 1270.04 3101.18 1263.59C3098.4 1256.49 3095.04 1249.64 3091.06 1243.05C3087.08 1236.46 3082.57 1230.25 3077.54 1224.4C3072.96 1219.08 3073.75 1211.22 3079.31 1206.83ZM1882.04 1868.35C1888.78 1865.93 1896.3 1869.21 1898.82 1875.66C1901.6 1882.76 1904.96 1889.61 1908.94 1896.2C1912.92 1902.79 1917.43 1909 1922.46 1914.85C1927.04 1920.17 1926.25 1928.04 1920.69 1932.42C1915.13 1936.8 1906.91 1936.04 1902.33 1930.72C1896.39 1923.82 1891.06 1916.47 1886.35 1908.68C1881.65 1900.88 1877.67 1892.78 1874.39 1884.41C1871.87 1877.96 1875.29 1870.77 1882.04 1868.35ZM3123.05 1295.1C3130.24 1294.69 3136.41 1299.93 3136.84 1306.81C3137.89 1323.66 3136.74 1341.11 3133.58 1359.01C3132.38 1365.8 3125.64 1370.38 3118.54 1369.23C3111.44 1368.08 3106.66 1361.63 3107.86 1354.84C3110.74 1338.59 3111.73 1323.04 3110.81 1308.3C3110.38 1301.42 3115.86 1295.51 3123.05 1295.1ZM1940.04 1948.73C1944.01 1942.97 1952.1 1941.39 1958.11 1945.18C1970.99 1953.32 1985.56 1960.27 2001.7 1966.01C2008.45 1968.41 2011.89 1975.6 2009.38 1982.06C2006.87 1988.52 1999.36 1991.81 1992.61 1989.41C1974.84 1983.09 1958.47 1975.31 1943.75 1966.02C1937.73 1962.22 1936.08 1954.48 1940.04 1948.73ZM2034.3 1988.53C2035.67 1981.76 2042.51 1977.33 2049.58 1978.64C2065.23 1981.53 2081.83 1983.56 2099.3 1984.71C2106.48 1985.19 2111.91 1991.15 2111.41 1998.02C2110.91 2004.9 2104.69 2010.09 2097.5 2009.62C2079.08 2008.4 2061.42 2006.25 2044.63 2003.15C2037.56 2001.84 2032.94 1995.29 2034.3 1988.53ZM2137.12 1998.46C2136.94 1991.57 2142.62 1985.84 2149.82 1985.66C2166.19 1985.26 2183.1 1984.2 2200.51 1982.48C2207.68 1981.78 2214.08 1986.76 2214.82 1993.62C2215.56 2000.48 2210.35 2006.61 2203.18 2007.31C2185.15 2009.09 2167.57 2010.19 2150.5 2010.62C2143.3 2010.79 2137.31 2005.35 2137.12 1998.46Z" fill="white"/>
<path d="M3120 1408.99C3122.35 1402.47 3118.74 1395.37 3111.93 1393.12C3105.12 1390.87 3097.7 1394.32 3095.35 1400.84C3090.14 1415.25 3083.67 1430.03 3075.99 1445.08C3072.82 1451.27 3075.5 1458.74 3081.97 1461.77C3088.44 1464.8 3096.25 1462.23 3099.42 1456.04C3107.53 1440.17 3114.41 1424.45 3120 1408.99Z" fill="white"/>
<path d="M3073.82 1500.46C3077.59 1494.58 3075.66 1486.9 3069.51 1483.3C3063.37 1479.7 3055.34 1481.55 3051.58 1487.43C3043.03 1500.78 3033.62 1514.27 3023.36 1527.84C3019.14 1533.43 3020.45 1541.23 3026.28 1545.27C3032.12 1549.31 3040.27 1548.06 3044.49 1542.47C3055.12 1528.42 3064.91 1514.4 3073.82 1500.46Z" fill="white"/>
<path d="M2959.2 1620.83C2964.49 1625.51 2972.74 1625.2 2977.63 1620.14C2987.51 1609.92 2996.99 1599.66 3006.05 1589.4C3000.67 1582.82 2995.1 1576.22 2989.34 1569.63C2979.58 1580.81 2969.29 1592.01 2958.48 1603.19C2953.59 1608.26 2953.91 1616.15 2959.2 1620.83Z" fill="white"/>
<path fill-rule="evenodd" clip-rule="evenodd" d="M3012.25 1582.3C3016.84 1576.98 3016.06 1569.12 3010.5 1564.73C3004.95 1560.34 2996.73 1561.08 2992.14 1566.4C2991.22 1567.47 2990.28 1568.55 2989.34 1569.63C2973.55 1551.52 2956.36 1533.39 2937.87 1515.36C2936.14 1501.2 2933.73 1487.24 2930.68 1473.53C2978.75 1517.43 3019.57 1562.38 3051.9 1606.75C3132.07 1716.79 3162.69 1827.39 3113.65 1908.68C3064.61 1989.96 2949.21 2019.88 2809.55 2008.46C2761.62 2004.54 2710.23 1995.73 2656.68 1982.17L2694.91 1965.52C2735.69 1974.54 2774.86 1980.57 2811.77 1983.59C2949.12 1994.83 3050.07 1964.14 3091.06 1896.2C3132.05 1828.25 3109.34 1729.24 3030.5 1621.03C3022.85 1610.53 3014.69 1599.98 3006.05 1589.4C3008.14 1587.03 3010.21 1584.66 3012.25 1582.3ZM2062.13 1623.89C2043.64 1605.86 2026.45 1587.73 2010.66 1569.63C2004.9 1563.03 1999.33 1556.44 1993.95 1549.85C1986.78 1541.07 1979.94 1532.31 1973.44 1523.58C1972.11 1521.79 1970.8 1520.01 1969.5 1518.22C1968.33 1516.62 1967.18 1515.02 1966.04 1513.43C1937.98 1474.19 1917.36 1436.22 1904.53 1400.55C1914.63 1393.87 1921.29 1382.4 1921.29 1369.39C1921.29 1350.6 1907.42 1335.05 1889.36 1332.43C1887.03 1298.97 1893.42 1268.79 1908.94 1243.05C1949.93 1175.11 2050.88 1144.43 2188.23 1155.66C2225.14 1158.68 2264.31 1164.72 2305.1 1173.73C2317.52 1167.6 2330.27 1162.04 2343.32 1157.08C2289.77 1143.52 2238.38 1134.71 2190.45 1130.79C2050.79 1119.37 1935.39 1149.29 1886.35 1230.57C1867.1 1262.49 1860.13 1298.92 1863.61 1338.06C1853.37 1344.72 1846.6 1356.26 1846.6 1369.39C1846.6 1388.37 1860.76 1404.05 1879.1 1406.42C1893.35 1446.8 1916.46 1488.78 1946.8 1530.7C1947.23 1531.3 1947.67 1531.9 1948.1 1532.5C1950.58 1535.89 1953.1 1539.3 1955.68 1542.7C1986.72 1583.75 2024.93 1625.18 2069.32 1665.72L2062.13 1623.89Z" fill="white"/>
<path fill-rule="evenodd" clip-rule="evenodd" d="M1862.92 1827.75C1777.72 1791.72 1778.62 1685.42 1946.8 1530.7C1947.23 1531.3 1947.67 1531.9 1948.1 1532.5C1950.58 1535.89 1953.1 1539.3 1955.68 1542.7C1794.6 1722.22 1849.61 1842.87 2084.63 1718.67L2123.56 1799.81C2029.52 1838.4 1946.04 1849.04 1888.47 1835.87C1879.27 1833.76 1870.74 1831.05 1862.92 1827.75Z" fill="white"/>
<path d="M2466.32 1917.11C2477.58 1921.92 2488.81 1926.56 2500 1931.01C2553.43 1952.25 2606.02 1969.34 2656.68 1982.17L2694.91 1965.52C2635.74 1952.45 2573.18 1933.11 2509.22 1907.64C2456.92 1886.47 2396.49 1858.3 2343.5 1829.03C2299.55 1804.74 2258.04 1778.96 2219.29 1752.18C2188.59 1730.96 2159.63 1709.1 2132.59 1686.86C2107.4 1666.14 2083.86 1645.09 2062.13 1623.89L2069.32 1665.72C2082.49 1677.75 2096.21 1689.71 2110.45 1701.54C2136.44 1723.15 2164.16 1744.39 2193.45 1765.04C2235.97 1795.01 2281.79 1823.75 2330.46 1850.64C2375.74 1875.66 2421.24 1897.84 2466.32 1917.11Z" fill="#101010"/>
<path d="M2110.45 1701.54L2084.63 1718.67L2123.56 1799.81L2193.45 1765.04C2164.16 1744.39 2136.44 1723.15 2110.45 1701.54Z" fill="#101010"/>
<path d="M2356.89 1683.72L2296.1 1578.44L2132.59 1686.86C2159.63 1709.1 2188.59 1730.96 2219.29 1752.18L2356.89 1683.72Z" fill="#101010"/>
<path d="M2317.2 1562.04L2379.94 1670.72C2382.11 1674.47 2380.82 1679.26 2377.07 1681.43C2373.32 1683.6 2368.52 1682.31 2366.36 1678.56L2303.61 1569.88C2301.45 1566.13 2302.73 1561.33 2306.48 1559.17C2310.24 1557 2315.03 1558.29 2317.2 1562.04Z" fill="#101010"/>
<path fill-rule="evenodd" clip-rule="evenodd" d="M2734.42 1590.58C2586.08 1592.46 2387.45 1664.12 2387.45 1664.12L2326.67 1558.84C2326.67 1558.84 2488.04 1422.65 2563.84 1295.12L2849.44 1311.35L2641.01 1431.69C2620.98 1409.6 2587.61 1403.65 2560.74 1419.17C2529.79 1437.03 2519.19 1476.61 2537.06 1507.56C2554.93 1538.5 2594.5 1549.11 2625.45 1531.24C2652.32 1515.73 2663.85 1483.85 2654.73 1455.47L2863.16 1335.13L2734.43 1590.58L2734.42 1590.58ZM2378.28 1569.79L2403.77 1613.94L2548.26 1571.13C2529.25 1562.27 2512.68 1547.68 2501.4 1528.14C2490.12 1508.6 2485.77 1486.96 2487.6 1466.07L2378.28 1569.79Z" fill="#101010"/>
<path d="M2350.76 1954.36C2343.82 1956.22 2339.77 1963.1 2341.71 1969.74C2343.64 1976.38 2350.84 1980.26 2357.78 1978.41C2374.29 1973.99 2390.99 1969.13 2407.84 1963.83C2414.69 1961.68 2418.41 1954.63 2416.16 1948.08C2413.91 1941.53 2406.54 1937.97 2399.7 1940.12C2383.21 1945.31 2366.88 1950.05 2350.76 1954.36Z" fill="#101010"/>
<path d="M2448.07 1923.82C2441.33 1926.24 2437.92 1933.44 2440.45 1939.89C2442.98 1946.34 2450.5 1949.61 2457.24 1947.19C2471.42 1942.09 2485.68 1936.7 2500 1931.01C2488.81 1926.56 2477.58 1921.92 2466.32 1917.11C2460.22 1919.4 2454.14 1921.64 2448.07 1923.82Z" fill="#101010"/>
<path d="M2542.63 1885.77C2536.1 1888.68 2533.27 1896.1 2536.31 1902.35C2539.35 1908.6 2547.11 1911.31 2553.64 1908.4C2569.27 1901.44 2584.95 1894.12 2600.64 1886.47C2607.05 1883.34 2609.6 1875.82 2606.33 1869.68C2603.06 1863.54 2595.21 1861.1 2588.79 1864.23C2573.38 1871.75 2557.98 1878.93 2542.63 1885.77Z" fill="#101010"/>
<path d="M2634.11 1841.15C2627.81 1844.49 2625.54 1852.09 2629.03 1858.12C2632.53 1864.14 2640.46 1866.32 2646.76 1862.98C2654.36 1858.95 2661.95 1854.83 2669.54 1850.64C2677.12 1846.45 2684.64 1842.21 2692.09 1837.93C2698.26 1834.39 2700.26 1826.72 2696.55 1820.81C2692.85 1814.9 2684.84 1812.99 2678.66 1816.54C2671.34 1820.74 2663.95 1824.9 2656.5 1829.03C2649.04 1833.15 2641.58 1837.19 2634.11 1841.15Z" fill="#101010"/>
<path d="M2779.75 1783.47C2785.65 1779.51 2787.08 1771.73 2782.94 1766.08C2778.81 1760.44 2770.67 1759.07 2764.78 1763.03C2750.92 1772.33 2736.72 1781.5 2722.21 1790.52C2716.17 1794.27 2714.45 1802 2718.37 1807.78C2722.29 1813.56 2730.37 1815.2 2736.41 1811.45C2751.18 1802.28 2765.63 1792.94 2779.75 1783.47Z" fill="#101010"/>
<path d="M2863.05 1722.97C2868.62 1718.59 2869.42 1710.73 2864.85 1705.4C2860.27 1700.08 2852.06 1699.31 2846.49 1703.69C2833.47 1713.93 2820.04 1724.08 2806.23 1734.1C2800.49 1738.27 2799.37 1746.1 2803.72 1751.59C2808.07 1757.08 2816.25 1758.15 2821.99 1753.99C2836.07 1743.77 2849.77 1733.42 2863.05 1722.97Z" fill="#101010"/>
<path d="M2884.4 1689.37C2889.2 1694.51 2897.45 1694.95 2902.82 1690.35C2912.36 1682.19 2921.65 1673.97 2930.68 1665.72C2932.89 1655.76 2934.77 1645.67 2936.3 1635.47C2931.75 1633.92 2926.47 1634.86 2922.79 1638.31C2910.83 1649.51 2898.37 1660.67 2885.43 1671.75C2880.06 1676.34 2879.6 1684.23 2884.4 1689.37Z" fill="#101010"/>
</svg>
